<svg width="32" height="32" viewBox="0 0 32 32" fill="none" xmlns="http://www.w3.org/2000/svg">
<g clip-path="url(#clip0_57_1740)">
<path d="M16 20C18.2091 20 20 18.2091 20 16C20 13.7909 18.2091 12 16 12C13.7909 12 12 13.7909 12 16C12 18.2091 13.7909 20 16 20Z" stroke="white" stroke-width="2.66667" stroke-linecap="round" stroke-linejoin="round"/>
<path d="M16 28V28.0133" stroke="white" stroke-width="2.66667" stroke-linecap="round" stroke-linejoin="round"/>
<path d="M4 12V12.0133" stroke="white" stroke-width="2.66667" stroke-linecap="round" stroke-linejoin="round"/>
<path d="M28 12V12.0133" stroke="white" stroke-width="2.66667" stroke-linecap="round" stroke-linejoin="round"/>
<path d="M10.6667 26.7999C8.84712 25.9124 7.28168 24.579 6.11605 22.9238C4.95041 21.2686 4.22248 19.3454 4 17.3333" stroke="white" stroke-width="2.66667" stroke-linecap="round" stroke-linejoin="round"/>
<path d="M21.3334 26.7999C23.1529 25.9124 24.7184 24.579 25.884 22.9238C27.0496 21.2686 27.7776 19.3454 28 17.3333" stroke="white" stroke-width="2.66667" stroke-linecap="round" stroke-linejoin="round"/>
<path d="M8.26672 6.66658C10.4108 4.91185 13.0961 3.95313 15.8667 3.95312C18.6373 3.95312 21.3226 4.91185 23.4667 6.66658" stroke="white" stroke-width="2.66667" stroke-linecap="round" stroke-linejoin="round"/>
</g>
<defs>
<clipPath id="clip0_57_1740">
<rect width="32" height="32" fill="white"/>
</clipPath>
</defs>
</svg>
