<svg width="32" height="32" viewBox="0 0 32 32" fill="none" xmlns="http://www.w3.org/2000/svg">
<g clip-path="url(#clip0_57_1753)">
<path d="M13.3334 18.6666C13.7679 19.1101 14.2865 19.4624 14.8589 19.7029C15.4312 19.9434 16.0459 20.0673 16.6667 20.0673C17.2876 20.0673 17.9022 19.9434 18.4745 19.7029C19.0469 19.4624 19.5655 19.1101 20 18.6666L25.3334 13.3333C26.2174 12.4492 26.7141 11.2502 26.7141 9.99993C26.7141 8.74969 26.2174 7.55066 25.3334 6.6666C24.4493 5.78255 23.2503 5.28589 22 5.28589C20.7498 5.28589 19.5508 5.78255 18.6667 6.6666L18 7.33327" stroke="#97EC49" stroke-width="2.66667" stroke-linecap="round" stroke-linejoin="round"/>
<path d="M18.6667 13.3333C18.2322 12.8898 17.7136 12.5375 17.1412 12.297C16.5688 12.0565 15.9542 11.9326 15.3334 11.9326C14.7125 11.9326 14.0979 12.0565 13.5256 12.297C12.9532 12.5375 12.4346 12.8898 12.0001 13.3333L6.66672 18.6666C5.78267 19.5507 5.28601 20.7497 5.28601 22C5.28601 23.2502 5.78267 24.4492 6.66672 25.3333C7.55078 26.2174 8.74981 26.714 10.0001 26.714C11.2503 26.714 12.4493 26.2174 13.3334 25.3333L14.0001 24.6666" stroke="#97EC49" stroke-width="2.66667" stroke-linecap="round" stroke-linejoin="round"/>
</g>
<defs>
<clipPath id="clip0_57_1753">
<rect width="32" height="32" fill="white"/>
</clipPath>
</defs>
</svg>
