<svg width="48" height="48" viewBox="0 0 48 48" fill="none" xmlns="http://www.w3.org/2000/svg">
<g clip-path="url(#clip0_209_17)">
<path d="M30 6C31.5913 6 33.1175 6.63214 34.2427 7.75736C35.3679 8.88258 36 10.4087 36 12C36.9867 11.9998 37.9582 12.2429 38.8285 12.7078C39.6988 13.1728 40.441 13.8451 40.9893 14.6654C41.5377 15.4856 41.8753 16.4285 41.9723 17.4104C42.0692 18.3923 41.9225 19.3829 41.5452 20.2946C41.1679 21.2063 40.5715 22.0108 39.809 22.637C39.0464 23.2632 38.1412 23.6916 37.1736 23.8844C36.2059 24.0771 35.2056 24.0283 34.2614 23.7422C33.3171 23.456 32.4579 22.9415 31.76 22.244L22.244 31.76C22.9308 32.4474 23.4404 33.2912 23.7289 34.219C24.0175 35.1469 24.0764 36.1309 23.9006 37.0865C23.7248 38.0421 23.3195 38.9407 22.7196 39.7051C22.1198 40.4695 21.3432 41.0768 20.4568 41.4747C19.5703 41.8726 18.6005 42.0493 17.6307 41.9895C16.6609 41.9298 15.7201 41.6354 14.8892 41.1317C14.0583 40.628 13.3622 39.93 12.8606 39.0978C12.3591 38.2656 12.0672 37.324 12.01 36.354L12 36L11.648 35.99C10.6777 35.9331 9.73571 35.6414 8.9031 35.1399C8.07049 34.6383 7.3722 33.942 6.86829 33.1108C6.36438 32.2797 6.06995 31.3385 6.01032 30.3683C5.9507 29.3982 6.12766 28.428 6.52599 27.5414C6.92433 26.6548 7.5321 25.8782 8.29702 25.2785C9.06195 24.6788 9.96112 24.2739 10.9172 24.0986C11.8732 23.9234 12.8576 23.983 13.7855 24.2724C14.7134 24.5618 15.5571 25.0723 16.244 25.76L25.76 16.244C24.9206 15.4051 24.3488 14.3361 24.1169 13.1723C23.8851 12.0084 24.0036 10.8019 24.4574 9.70538C24.9113 8.60885 25.6801 7.67154 26.6667 7.01198C27.6533 6.35243 28.8133 6.00025 30 6V6Z" stroke="#97EC49" stroke-width="4" stroke-linecap="round" stroke-linejoin="round"/>
</g>
<defs>
<clipPath id="clip0_209_17">
<rect width="48" height="48" fill="white"/>
</clipPath>
</defs>
</svg>
