<svg width="432" height="458" viewBox="0 0 432 458" fill="none" xmlns="http://www.w3.org/2000/svg">
<path d="M0 183.964C0 190.691 0 194.054 0.458975 197.349C0.866591 200.276 1.54353 203.158 2.48118 205.96C3.53697 209.115 5.03421 212.127 8.02867 218.151L77.9713 358.849C80.9658 364.873 82.463 367.885 83.5188 371.04C84.4565 373.842 85.1334 376.724 85.541 379.651C86 382.946 86 386.309 86 393.036V416.094C86 421.964 86 424.899 86.6631 427.662C87.251 430.11 88.2207 432.452 89.5366 434.599C91.0208 437.021 93.0963 439.096 97.2471 443.247L100.253 446.253C104.404 450.404 106.479 452.479 108.901 453.963C111.048 455.279 113.39 456.249 115.838 456.837C118.601 457.5 121.536 457.5 127.406 457.5H304.594C310.464 457.5 313.399 457.5 316.162 456.837C318.61 456.249 320.952 455.279 323.099 453.963C325.521 452.479 327.596 450.404 331.747 446.253L334.753 443.247C338.904 439.096 340.979 437.021 342.463 434.599C343.779 432.452 344.749 430.11 345.337 427.662C346 424.899 346 421.964 346 416.094V393.036C346 386.309 346 382.946 346.459 379.651C346.867 376.724 347.544 373.842 348.481 371.04C349.537 367.885 351.034 364.873 354.029 358.849L423.971 218.151C426.966 212.127 428.463 209.115 429.519 205.96C430.456 203.158 431.133 200.276 431.541 197.349C432 194.054 432 190.691 432 183.964V70.4058C432 64.5356 432 61.6005 431.337 58.8384C430.749 56.3896 429.779 54.0485 428.463 51.9012C426.979 49.4792 424.904 47.4037 420.753 43.2529L414.247 36.7471C410.096 32.5963 408.021 30.5208 405.599 29.0366C403.452 27.7207 401.11 26.751 398.662 26.1631C395.899 25.5 392.964 25.5 387.094 25.5H361.906C356.036 25.5 353.101 25.5 350.338 24.8369C347.89 24.249 345.548 23.2793 343.401 21.9634C340.979 20.4792 338.904 18.4037 334.753 14.2529L331.747 11.2471C327.596 7.09626 325.521 5.02084 323.099 3.53664C320.952 2.22075 318.61 1.25104 316.162 0.663122C313.399 0 310.464 0 304.594 0H127.406C121.536 0 118.601 0 115.838 0.663122C113.39 1.25104 111.048 2.22075 108.901 3.53664C106.479 5.02084 104.404 7.09626 100.253 11.2471L97.2471 14.2529C93.0963 18.4037 91.0208 20.4792 88.5988 21.9634C86.4515 23.2793 84.1104 24.249 81.6616 24.8369C78.8995 25.5 75.9644 25.5 70.0942 25.5H44.9058C39.0356 25.5 36.1005 25.5 33.3384 26.1631C30.8896 26.751 28.5485 27.7207 26.4012 29.0366C23.9792 30.5208 21.9037 32.5963 17.7529 36.7471L11.2471 43.2529C7.09626 47.4037 5.02084 49.4792 3.53664 51.9012C2.22075 54.0485 1.25104 56.3896 0.663122 58.8384C0 61.6005 0 64.5356 0 70.4058V183.964Z" fill="#F4CB38"/>
</svg>
